<svg width="38" height="38" viewBox="0 0 38 38" fill="none" xmlns="http://www.w3.org/2000/svg">
<g clip-path="url(#clip0_1047_620)">
<path d="M15.8 8.59961H10.1689C9.65724 8.59961 9.24121 9.01564 9.24121 9.52734V18.7255C9.24121 19.237 9.65724 19.6533 10.1689 19.6533H15.8C16.3117 19.6533 16.7277 19.237 16.7277 18.7255V9.52734C16.7277 9.01564 16.3117 8.59961 15.8 8.59961ZM12.4277 18.54H10.3545V16.2636H12.4277V18.54ZM12.4277 15.1503H10.3545V13.1023H12.4277V15.1503ZM12.4277 11.989H10.3545V9.71289H12.4277V11.989ZM15.6145 18.54H13.541V16.2636H15.6145V18.54ZM15.6145 15.1503H13.541V13.1023H15.6145V15.1503ZM15.6145 11.989H13.541V9.71289H15.6145V11.989Z" fill="white"/>
<path d="M23.2656 30.8228C22.958 30.8228 22.709 31.0721 22.709 31.3794V32.7159C22.709 33.0232 22.958 33.2726 23.2656 33.2726C23.5732 33.2726 23.8223 33.0232 23.8223 32.7159V31.3794C23.8223 31.0721 23.5732 30.8228 23.2656 30.8228Z" fill="white"/>
<path d="M37.9947 25.2013C37.9689 25.0059 37.8689 24.8317 37.7132 24.7111L25.9202 15.5865C25.6587 15.3844 25.3462 15.2775 25.0163 15.2775C24.6861 15.2775 24.3735 15.3844 24.1117 15.5868L22.3282 16.9668V15.3682C22.3282 15.0606 22.0791 14.8116 21.7715 14.8116C21.4639 14.8116 21.2149 15.0606 21.2149 15.3682V17.8282L12.3197 24.7108C12.1649 24.8302 12.0619 25.0103 12.0376 25.2036C12.0124 25.3993 12.0648 25.5936 12.1851 25.7504L13.0877 26.9243C13.2294 27.1078 13.4434 27.2131 13.675 27.2131C13.838 27.2131 13.9989 27.1583 14.1282 27.0582L25.0163 18.6338L33.2461 25.0016V36.5994H28.7629V35.5557C28.7629 35.2481 28.5138 34.9991 28.2062 34.9991C27.8986 34.9991 27.6496 35.2481 27.6496 35.5557V36.5994H22.3821V28.0718H27.6496V32.9395C27.6496 33.2471 27.8986 33.4961 28.2062 33.4961C28.5138 33.4961 28.7629 33.2471 28.7629 32.9395V27.8862C28.7629 27.3748 28.3466 26.9585 27.8351 26.9585H22.1968C21.6851 26.9585 21.2688 27.3748 21.2688 27.8862V36.5994H17.0389V35.0811C17.0389 34.5694 16.6229 34.1534 16.1112 34.1534H15.5783C15.6227 33.9319 15.6468 33.7031 15.6468 33.4689C15.6468 31.5424 14.0792 29.9751 12.1527 29.9751C11.1069 29.9751 10.1285 30.4549 9.47414 31.233C9.22655 31.1548 8.9633 31.1122 8.6902 31.1122C8.48958 31.1122 8.29243 31.1345 8.1008 31.1791C7.49458 30.1406 6.36333 29.4727 5.14046 29.4727C5.01029 29.4727 4.88156 29.4808 4.75458 29.4956V10.8626L12.9847 4.49429L21.2152 10.8626V12.7703C21.2152 13.0779 21.4642 13.3269 21.7718 13.3269C22.0791 13.3269 22.3285 13.0779 22.3285 12.7703V11.724L23.8731 12.919C24.0022 13.019 24.1631 13.0738 24.326 13.0738C24.5582 13.0738 24.7725 12.9683 24.9137 12.7845C24.9157 12.7819 24.9177 12.779 24.9197 12.7764L25.7843 11.6086L25.7898 11.6016C25.8469 11.53 25.9985 11.3401 25.9631 11.0621C25.9373 10.8658 25.837 10.6916 25.6816 10.5718L13.889 1.44727C13.6275 1.24519 13.315 1.13821 12.9847 1.13821C12.6545 1.13821 12.342 1.24519 12.0802 1.44756L8.84241 3.95273V3.25113C9.28018 3.17691 9.61475 2.79596 9.61475 2.3376V1.22461C9.61475 0.712906 9.19842 0.296875 8.68701 0.296875H4.1762C3.66478 0.296875 3.24846 0.712906 3.24846 1.22461V2.33731C3.24846 2.79596 3.58303 3.17662 4.0208 3.25113V7.68338L0.288993 10.571C0.133598 10.6904 0.0306776 10.8707 0.00632463 11.0635C-0.019188 11.2595 0.0329969 11.4538 0.153602 11.6109L1.05611 12.7848C1.19759 12.9686 1.41155 13.0738 1.64348 13.0738C1.80642 13.0738 1.96703 13.019 2.09691 12.919L3.6413 11.724V29.8229C2.75763 30.2578 2.0772 31.0637 1.82439 32.0468C0.985084 32.3704 0.408439 33.1856 0.408439 34.1111C0.408439 34.2131 0.415687 34.3134 0.429023 34.412C0.252464 34.581 0.142296 34.8182 0.142296 35.0811V36.7852C0.142296 37.2967 0.558326 37.713 1.07003 37.713H35.9728C36.2804 37.713 36.5295 37.4637 36.5295 37.1563C36.5295 36.8487 36.2804 36.5997 35.9728 36.5997H34.3594V25.8629L35.9044 27.0582C36.0334 27.158 36.1943 27.2131 36.3572 27.2131C36.5895 27.2131 36.8037 27.1075 36.9449 26.9234C36.9469 26.9208 36.949 26.9182 36.951 26.9156L37.8158 25.7475L37.8216 25.7403C37.8784 25.669 38.0298 25.4791 37.9947 25.2013ZM12.1527 31.0884C13.4654 31.0884 14.5335 32.1564 14.5335 33.4689C14.5335 33.7069 14.4975 33.9365 14.4323 34.1534H11.2571C11.2812 34.0119 11.2945 33.8664 11.2945 33.7179C11.2945 32.9627 10.9713 32.282 10.4567 31.8053C10.8968 31.3586 11.5056 31.0884 12.1527 31.0884ZM4.36174 1.41016H8.50146V2.15176H4.36174V1.41016ZM7.72913 3.26505V4.81407L5.13408 6.82204V3.26505H7.72913ZM1.71104 11.8101L1.26195 11.2259L12.7612 2.32803C12.827 2.2773 12.9021 2.2515 12.9847 2.2515C13.0674 2.2515 13.1425 2.2773 13.208 2.32774L24.6916 11.2134L24.2532 11.8057L13.3254 3.35028C13.1248 3.19518 12.8447 3.19518 12.6441 3.35028L1.71104 11.8101ZM15.9257 36.5997H1.25558V35.2667H6.38304C6.69035 35.2667 6.93968 35.0176 6.93968 34.71C6.93968 34.4024 6.69035 34.1534 6.38304 34.1534H1.52317C1.52259 34.1392 1.52172 34.1253 1.52172 34.1111C1.52172 33.586 1.89484 33.1323 2.40944 33.0326C2.64225 32.9873 2.82084 32.7998 2.85447 32.5652C3.01682 31.4371 3.99964 30.5862 5.14046 30.5862C6.08791 30.5862 6.95418 31.1809 7.29599 32.0657C7.35165 32.2101 7.46472 32.3246 7.60852 32.3823C7.75232 32.4397 7.91322 32.4345 8.05325 32.3684C8.2533 32.2738 8.46783 32.2257 8.6902 32.2257C9.5124 32.2257 10.1812 32.8951 10.1812 33.7182C10.1812 33.8698 10.1575 34.0157 10.1151 34.1534H9.05492C8.74731 34.1534 8.49828 34.4027 8.49828 34.71C8.49828 35.0176 8.74731 35.2667 9.05492 35.2667H15.9257V36.5997ZM36.2848 25.945L25.3569 17.4898C25.1563 17.3344 24.8763 17.3344 24.6756 17.4898L13.7423 25.9493L13.2932 25.3651L24.7928 16.4676C24.8586 16.4165 24.9337 16.3907 25.0163 16.3907C25.0986 16.3907 25.174 16.4165 25.2395 16.4673L36.7231 25.3527L36.2848 25.945Z" fill="white"/>
</g>
<defs>
<clipPath id="clip0_1047_620">
<rect width="38" height="38" fill="white"/>
</clipPath>
</defs>
</svg>
