<svg width="14" height="16" viewBox="0 0 14 16" fill="none" xmlns="http://www.w3.org/2000/svg">
<path d="M9.16992 9.6911C11.3379 9.6911 13.125 11.4782 13.125 13.6462V14.3786C13.125 15.1696 12.4805 15.7849 11.7188 15.7849H1.40625C0.615234 15.7849 0 15.1696 0 14.3786V13.6462C0 11.4782 1.75781 9.6911 3.92578 9.6911C4.77539 9.6911 5.15625 10.1599 6.5625 10.1599C7.93945 10.1599 8.32031 9.6911 9.16992 9.6911ZM11.7188 14.3786V13.6462C11.7188 12.2399 10.5762 11.0974 9.16992 11.0974C8.73047 11.0974 8.05664 11.5661 6.5625 11.5661C5.03906 11.5661 4.36523 11.0974 3.92578 11.0974C2.51953 11.0974 1.40625 12.2399 1.40625 13.6462V14.3786H11.7188ZM6.5625 9.22235C4.21875 9.22235 2.34375 7.34735 2.34375 5.0036C2.34375 2.68915 4.21875 0.784851 6.5625 0.784851C8.87695 0.784851 10.7812 2.68915 10.7812 5.0036C10.7812 7.34735 8.87695 9.22235 6.5625 9.22235ZM6.5625 2.1911C5.00977 2.1911 3.75 3.48016 3.75 5.0036C3.75 6.55634 5.00977 7.8161 6.5625 7.8161C8.08594 7.8161 9.375 6.55634 9.375 5.0036C9.375 3.48016 8.08594 2.1911 6.5625 2.1911Z" fill="#25AE22"/>
</svg>
