<svg xmlns="http://www.w3.org/2000/svg" xmlns:xlink="http://www.w3.org/1999/xlink" width="500" zoomAndPan="magnify" viewBox="0 0 375 374.999991" height="500" preserveAspectRatio="xMidYMid meet" version="1.0"><defs><g/></defs><g fill="#ffa60b" fill-opacity="1"><g transform="translate(101.690849, 292.851509)"><g><path d="M 6.703125 -17.375 C 6.097656 -17.375 5.632812 -17.113281 5.3125 -16.59375 C 5.175781 -16.351562 5.097656 -16.082031 5.078125 -15.78125 L 5.078125 0 C 5.078125 1.40625 4.632812 2.59375 3.75 3.5625 C 2.875 4.539062 1.789062 5.03125 0.5 5.03125 L 0.5 4.8125 C 1.320312 4.519531 2.019531 3.898438 2.59375 2.953125 C 3.164062 2.003906 3.453125 0.992188 3.453125 -0.078125 L 3.453125 -15.78125 C 3.429688 -16.21875 3.265625 -16.59375 2.953125 -16.90625 C 2.640625 -17.21875 2.269531 -17.375 1.84375 -17.375 L 1.515625 -17.375 L 1.515625 -17.625 L 7.015625 -17.625 L 7.015625 -17.375 Z M 6.703125 -17.375 "/></g></g></g><g fill="#ffa60b" fill-opacity="1"><g transform="translate(109.847399, 292.851509)"><g><path d="M 1.734375 -0.25 C 2.140625 -0.25 2.476562 -0.378906 2.75 -0.640625 C 3.03125 -0.898438 3.179688 -1.210938 3.203125 -1.578125 L 3.203125 -13.546875 C 3.203125 -13.910156 3.054688 -14.21875 2.765625 -14.46875 C 2.484375 -14.71875 2.140625 -14.84375 1.734375 -14.84375 L 1.390625 -14.84375 L 1.390625 -15.109375 L 8.734375 -15.109375 C 9.421875 -15.109375 10.023438 -15.15625 10.546875 -15.25 C 11.066406 -15.351562 11.398438 -15.4375 11.546875 -15.5 L 11.546875 -12.640625 L 11.28125 -12.65625 L 11.28125 -13.03125 C 11.28125 -13.382812 11.160156 -13.6875 10.921875 -13.9375 C 10.691406 -14.195312 10.390625 -14.328125 10.015625 -14.328125 L 4.78125 -14.328125 L 4.78125 -7.921875 L 9.09375 -7.921875 C 9.425781 -7.921875 9.679688 -8.019531 9.859375 -8.21875 C 10.035156 -8.425781 10.125 -8.679688 10.125 -8.984375 L 10.125 -9.3125 L 10.390625 -9.3125 L 10.390625 -5.796875 L 10.125 -5.796875 L 10.125 -6.109375 C 10.125 -6.585938 9.945312 -6.910156 9.59375 -7.078125 C 9.457031 -7.128906 9.3125 -7.160156 9.15625 -7.171875 L 4.78125 -7.171875 L 4.78125 -0.78125 L 8.734375 -0.78125 C 9.503906 -0.78125 10.15625 -0.910156 10.6875 -1.171875 C 11.21875 -1.441406 11.617188 -1.757812 11.890625 -2.125 C 12.171875 -2.5 12.453125 -2.988281 12.734375 -3.59375 L 12.984375 -3.59375 L 11.609375 0 L 1.390625 0 L 1.390625 -0.25 Z M 1.734375 -0.25 "/></g></g></g><g fill="#ffa60b" fill-opacity="1"><g transform="translate(123.592693, 292.851509)"><g><path d="M 1.453125 -0.828125 C 1.410156 -1.023438 1.390625 -1.4375 1.390625 -2.0625 C 1.390625 -2.6875 1.5 -3.316406 1.71875 -3.953125 L 2.015625 -3.953125 C 1.992188 -3.796875 1.984375 -3.644531 1.984375 -3.5 C 1.984375 -2.59375 2.28125 -1.847656 2.875 -1.265625 C 3.476562 -0.691406 4.304688 -0.40625 5.359375 -0.40625 C 6.460938 -0.40625 7.328125 -0.660156 7.953125 -1.171875 C 8.578125 -1.679688 8.890625 -2.34375 8.890625 -3.15625 C 8.890625 -3.96875 8.585938 -4.644531 7.984375 -5.1875 L 2.9375 -9.0625 C 2.132812 -9.75 1.734375 -10.671875 1.734375 -11.828125 C 1.734375 -12.484375 1.910156 -13.085938 2.265625 -13.640625 C 2.628906 -14.191406 3.132812 -14.628906 3.78125 -14.953125 C 4.425781 -15.285156 5.1875 -15.453125 6.0625 -15.453125 C 6.9375 -15.453125 7.707031 -15.378906 8.375 -15.234375 L 9.21875 -15.234375 L 9.265625 -12.484375 L 8.984375 -12.484375 C 8.984375 -13.191406 8.738281 -13.738281 8.25 -14.125 C 7.769531 -14.507812 7.078125 -14.703125 6.171875 -14.703125 C 5.265625 -14.703125 4.515625 -14.46875 3.921875 -14 C 3.335938 -13.539062 3.046875 -12.945312 3.046875 -12.21875 C 3.046875 -11.488281 3.375 -10.859375 4.03125 -10.328125 L 9.109375 -6.390625 C 9.878906 -5.753906 10.265625 -4.863281 10.265625 -3.71875 C 10.265625 -2.582031 9.832031 -1.617188 8.96875 -0.828125 C 8.101562 -0.0351562 7.050781 0.359375 5.8125 0.359375 C 4.988281 0.359375 4.164062 0.253906 3.34375 0.046875 C 2.519531 -0.148438 1.890625 -0.441406 1.453125 -0.828125 Z M 1.453125 -0.828125 "/></g></g></g><g fill="#ffa60b" fill-opacity="1"><g transform="translate(135.223327, 292.851509)"><g><path d="M 1.453125 -0.828125 C 1.410156 -1.023438 1.390625 -1.4375 1.390625 -2.0625 C 1.390625 -2.6875 1.5 -3.316406 1.71875 -3.953125 L 2.015625 -3.953125 C 1.992188 -3.796875 1.984375 -3.644531 1.984375 -3.5 C 1.984375 -2.59375 2.28125 -1.847656 2.875 -1.265625 C 3.476562 -0.691406 4.304688 -0.40625 5.359375 -0.40625 C 6.460938 -0.40625 7.328125 -0.660156 7.953125 -1.171875 C 8.578125 -1.679688 8.890625 -2.34375 8.890625 -3.15625 C 8.890625 -3.96875 8.585938 -4.644531 7.984375 -5.1875 L 2.9375 -9.0625 C 2.132812 -9.75 1.734375 -10.671875 1.734375 -11.828125 C 1.734375 -12.484375 1.910156 -13.085938 2.265625 -13.640625 C 2.628906 -14.191406 3.132812 -14.628906 3.78125 -14.953125 C 4.425781 -15.285156 5.1875 -15.453125 6.0625 -15.453125 C 6.9375 -15.453125 7.707031 -15.378906 8.375 -15.234375 L 9.21875 -15.234375 L 9.265625 -12.484375 L 8.984375 -12.484375 C 8.984375 -13.191406 8.738281 -13.738281 8.25 -14.125 C 7.769531 -14.507812 7.078125 -14.703125 6.171875 -14.703125 C 5.265625 -14.703125 4.515625 -14.46875 3.921875 -14 C 3.335938 -13.539062 3.046875 -12.945312 3.046875 -12.21875 C 3.046875 -11.488281 3.375 -10.859375 4.03125 -10.328125 L 9.109375 -6.390625 C 9.878906 -5.753906 10.265625 -4.863281 10.265625 -3.71875 C 10.265625 -2.582031 9.832031 -1.617188 8.96875 -0.828125 C 8.101562 -0.0351562 7.050781 0.359375 5.8125 0.359375 C 4.988281 0.359375 4.164062 0.253906 3.34375 0.046875 C 2.519531 -0.148438 1.890625 -0.441406 1.453125 -0.828125 Z M 1.453125 -0.828125 "/></g></g></g><g fill="#ffa60b" fill-opacity="1"><g transform="translate(146.853962, 292.851509)"><g><path d="M 1.734375 -0.25 C 2.191406 -0.25 2.585938 -0.382812 2.921875 -0.65625 C 3.253906 -0.925781 3.421875 -1.242188 3.421875 -1.609375 L 3.421875 -13.484375 C 3.421875 -13.859375 3.253906 -14.175781 2.921875 -14.4375 C 2.585938 -14.707031 2.1875 -14.84375 1.71875 -14.84375 L 1.390625 -14.84375 L 1.390625 -15.109375 L 7.078125 -15.109375 L 7.078125 -14.84375 L 6.75 -14.84375 C 6.289062 -14.84375 5.894531 -14.71875 5.5625 -14.46875 C 5.238281 -14.21875 5.0625 -13.910156 5.03125 -13.546875 L 5.03125 -1.578125 C 5.050781 -1.210938 5.226562 -0.898438 5.5625 -0.640625 C 5.894531 -0.378906 6.289062 -0.25 6.75 -0.25 L 7.078125 -0.25 L 7.09375 0 L 1.390625 0 L 1.390625 -0.25 Z M 1.734375 -0.25 "/></g></g></g><g fill="#ffa60b" fill-opacity="1"><g transform="translate(155.312607, 292.851509)"><g><path d="M 9.5625 0.359375 C 7 0.335938 4.972656 -0.375 3.484375 -1.78125 C 2.003906 -3.195312 1.265625 -5.125 1.265625 -7.5625 C 1.265625 -10.007812 2.003906 -11.9375 3.484375 -13.34375 C 4.972656 -14.75 7 -15.453125 9.5625 -15.453125 C 10.601562 -15.453125 11.648438 -15.316406 12.703125 -15.046875 C 13.765625 -14.785156 14.679688 -14.414062 15.453125 -13.9375 L 16.015625 -10.375 L 15.78125 -10.375 C 15.0625 -13.257812 12.984375 -14.703125 9.546875 -14.703125 C 7.546875 -14.703125 5.96875 -14.0625 4.8125 -12.78125 C 3.65625 -11.507812 3.078125 -9.765625 3.078125 -7.546875 C 3.078125 -6.109375 3.332031 -4.851562 3.84375 -3.78125 C 4.363281 -2.71875 5.117188 -1.894531 6.109375 -1.3125 C 7.109375 -0.71875 8.257812 -0.421875 9.5625 -0.421875 C 10.875 -0.421875 12.019531 -0.617188 13 -1.015625 C 13.976562 -1.410156 14.789062 -2.0625 15.4375 -2.96875 C 16.082031 -3.875 16.445312 -5 16.53125 -6.34375 L 16.765625 -6.34375 L 16.484375 -2.890625 C 15.828125 -1.890625 14.878906 -1.097656 13.640625 -0.515625 C 12.398438 0.0664062 11.039062 0.359375 9.5625 0.359375 Z M 9.5625 0.359375 "/></g></g></g><g fill="#ffa60b" fill-opacity="1"><g transform="translate(173.060651, 292.851509)"><g><path d="M 16.609375 -0.25 L 16.8125 -0.25 L 16.8125 0 L 11.65625 0 L 11.65625 -0.25 L 11.859375 -0.25 C 12.171875 -0.25 12.410156 -0.359375 12.578125 -0.578125 C 12.753906 -0.796875 12.84375 -1 12.84375 -1.1875 C 12.84375 -1.382812 12.804688 -1.578125 12.734375 -1.765625 L 11.359375 -5.109375 L 4.984375 -5.109375 L 3.59375 -1.84375 C 3.507812 -1.625 3.46875 -1.414062 3.46875 -1.21875 C 3.46875 -1.03125 3.550781 -0.820312 3.71875 -0.59375 C 3.894531 -0.363281 4.148438 -0.25 4.484375 -0.25 L 4.6875 -0.25 L 4.6875 0 L -0.125 0 L -0.125 -0.25 L 0.078125 -0.25 C 0.429688 -0.25 0.785156 -0.367188 1.140625 -0.609375 C 1.503906 -0.859375 1.800781 -1.226562 2.03125 -1.71875 C 5.707031 -9.5625 7.625 -13.671875 7.78125 -14.046875 C 8.0625 -14.753906 8.210938 -15.222656 8.234375 -15.453125 L 8.453125 -15.453125 L 14.671875 -1.71875 C 15.160156 -0.738281 15.804688 -0.25 16.609375 -0.25 Z M 5.3125 -5.859375 L 11.046875 -5.859375 L 8.234375 -12.765625 Z M 5.3125 -5.859375 "/></g></g></g><g fill="#ffa60b" fill-opacity="1"><g transform="translate(189.751364, 292.851509)"><g/></g></g><g fill="#ffa60b" fill-opacity="1"><g transform="translate(196.044999, 292.851509)"><g><path d="M 11.375 -13.015625 C 11.625 -12.523438 11.75 -11.9375 11.75 -11.25 C 11.75 -10.5625 11.472656 -9.925781 10.921875 -9.34375 C 10.367188 -8.769531 9.722656 -8.390625 8.984375 -8.203125 C 10.210938 -8.066406 11.222656 -7.617188 12.015625 -6.859375 C 12.816406 -6.109375 13.21875 -5.285156 13.21875 -4.390625 C 13.21875 -3.492188 13.046875 -2.757812 12.703125 -2.1875 C 12.359375 -1.613281 11.898438 -1.175781 11.328125 -0.875 C 10.234375 -0.289062 9 0 7.625 0 L 1.390625 0 L 1.390625 -0.25 L 1.6875 -0.25 C 2.101562 -0.25 2.453125 -0.378906 2.734375 -0.640625 C 3.023438 -0.898438 3.179688 -1.222656 3.203125 -1.609375 L 3.203125 -13.484375 C 3.179688 -14.046875 2.925781 -14.441406 2.4375 -14.671875 C 2.21875 -14.785156 1.96875 -14.84375 1.6875 -14.84375 L 1.390625 -14.84375 L 1.390625 -15.109375 L 6.515625 -15.109375 C 9.015625 -15.109375 10.632812 -14.410156 11.375 -13.015625 Z M 11.421875 -4.234375 C 11.421875 -6.734375 9.46875 -7.984375 5.5625 -7.984375 L 5.5625 -8.234375 C 8.519531 -8.234375 10 -9.265625 10 -11.328125 C 10 -13.335938 8.832031 -14.34375 6.5 -14.34375 L 4.78125 -14.34375 L 4.78125 -0.75 L 7.609375 -0.75 C 8.742188 -0.75 9.660156 -1.035156 10.359375 -1.609375 C 11.066406 -2.191406 11.421875 -3.066406 11.421875 -4.234375 Z M 11.421875 -4.234375 "/></g></g></g><g fill="#ffa60b" fill-opacity="1"><g transform="translate(210.394484, 292.851509)"><g><path d="M 16.609375 -0.25 L 16.8125 -0.25 L 16.8125 0 L 11.65625 0 L 11.65625 -0.25 L 11.859375 -0.25 C 12.171875 -0.25 12.410156 -0.359375 12.578125 -0.578125 C 12.753906 -0.796875 12.84375 -1 12.84375 -1.1875 C 12.84375 -1.382812 12.804688 -1.578125 12.734375 -1.765625 L 11.359375 -5.109375 L 4.984375 -5.109375 L 3.59375 -1.84375 C 3.507812 -1.625 3.46875 -1.414062 3.46875 -1.21875 C 3.46875 -1.03125 3.550781 -0.820312 3.71875 -0.59375 C 3.894531 -0.363281 4.148438 -0.25 4.484375 -0.25 L 4.6875 -0.25 L 4.6875 0 L -0.125 0 L -0.125 -0.25 L 0.078125 -0.25 C 0.429688 -0.25 0.785156 -0.367188 1.140625 -0.609375 C 1.503906 -0.859375 1.800781 -1.226562 2.03125 -1.71875 C 5.707031 -9.5625 7.625 -13.671875 7.78125 -14.046875 C 8.0625 -14.753906 8.210938 -15.222656 8.234375 -15.453125 L 8.453125 -15.453125 L 14.671875 -1.71875 C 15.160156 -0.738281 15.804688 -0.25 16.609375 -0.25 Z M 5.3125 -5.859375 L 11.046875 -5.859375 L 8.234375 -12.765625 Z M 5.3125 -5.859375 "/></g></g></g><g fill="#ffa60b" fill-opacity="1"><g transform="translate(227.085205, 292.851509)"><g><path d="M 18.296875 -14.84375 C 17.929688 -14.84375 17.613281 -14.722656 17.34375 -14.484375 C 17.070312 -14.242188 16.929688 -13.945312 16.921875 -13.59375 L 16.921875 -2.875 C 16.921875 -1.894531 16.976562 -0.96875 17.09375 -0.09375 L 17.140625 0.359375 L 16.921875 0.359375 L 3.828125 -12.0625 L 3.828125 -1.5625 C 3.828125 -1.1875 3.957031 -0.875 4.21875 -0.625 C 4.488281 -0.375 4.816406 -0.25 5.203125 -0.25 L 5.640625 -0.25 L 5.640625 0 L 0.875 0 L 0.875 -0.25 L 1.3125 -0.25 C 1.695312 -0.25 2.019531 -0.375 2.28125 -0.625 C 2.550781 -0.875 2.6875 -1.1875 2.6875 -1.5625 L 2.6875 -12.328125 C 2.6875 -13.359375 2.628906 -14.273438 2.515625 -15.078125 L 2.46875 -15.484375 L 2.75 -15.453125 L 15.8125 -3.140625 L 15.8125 -13.59375 C 15.769531 -13.945312 15.613281 -14.242188 15.34375 -14.484375 C 15.082031 -14.722656 14.765625 -14.84375 14.390625 -14.84375 L 13.96875 -14.84375 L 13.96875 -15.109375 L 18.734375 -15.109375 L 18.734375 -14.84375 Z M 18.296875 -14.84375 "/></g></g></g><g fill="#ffa60b" fill-opacity="1"><g transform="translate(246.696163, 292.851509)"><g><path d="M 1.453125 -0.828125 C 1.410156 -1.023438 1.390625 -1.4375 1.390625 -2.0625 C 1.390625 -2.6875 1.5 -3.316406 1.71875 -3.953125 L 2.015625 -3.953125 C 1.992188 -3.796875 1.984375 -3.644531 1.984375 -3.5 C 1.984375 -2.59375 2.28125 -1.847656 2.875 -1.265625 C 3.476562 -0.691406 4.304688 -0.40625 5.359375 -0.40625 C 6.460938 -0.40625 7.328125 -0.660156 7.953125 -1.171875 C 8.578125 -1.679688 8.890625 -2.34375 8.890625 -3.15625 C 8.890625 -3.96875 8.585938 -4.644531 7.984375 -5.1875 L 2.9375 -9.0625 C 2.132812 -9.75 1.734375 -10.671875 1.734375 -11.828125 C 1.734375 -12.484375 1.910156 -13.085938 2.265625 -13.640625 C 2.628906 -14.191406 3.132812 -14.628906 3.78125 -14.953125 C 4.425781 -15.285156 5.1875 -15.453125 6.0625 -15.453125 C 6.9375 -15.453125 7.707031 -15.378906 8.375 -15.234375 L 9.21875 -15.234375 L 9.265625 -12.484375 L 8.984375 -12.484375 C 8.984375 -13.191406 8.738281 -13.738281 8.25 -14.125 C 7.769531 -14.507812 7.078125 -14.703125 6.171875 -14.703125 C 5.265625 -14.703125 4.515625 -14.46875 3.921875 -14 C 3.335938 -13.539062 3.046875 -12.945312 3.046875 -12.21875 C 3.046875 -11.488281 3.375 -10.859375 4.03125 -10.328125 L 9.109375 -6.390625 C 9.878906 -5.753906 10.265625 -4.863281 10.265625 -3.71875 C 10.265625 -2.582031 9.832031 -1.617188 8.96875 -0.828125 C 8.101562 -0.0351562 7.050781 0.359375 5.8125 0.359375 C 4.988281 0.359375 4.164062 0.253906 3.34375 0.046875 C 2.519531 -0.148438 1.890625 -0.441406 1.453125 -0.828125 Z M 1.453125 -0.828125 "/></g></g></g><g fill="#ffa60b" fill-opacity="1"><g transform="translate(258.326804, 292.851509)"><g><path d="M 16.609375 -0.25 L 16.8125 -0.25 L 16.8125 0 L 11.65625 0 L 11.65625 -0.25 L 11.859375 -0.25 C 12.171875 -0.25 12.410156 -0.359375 12.578125 -0.578125 C 12.753906 -0.796875 12.84375 -1 12.84375 -1.1875 C 12.84375 -1.382812 12.804688 -1.578125 12.734375 -1.765625 L 11.359375 -5.109375 L 4.984375 -5.109375 L 3.59375 -1.84375 C 3.507812 -1.625 3.46875 -1.414062 3.46875 -1.21875 C 3.46875 -1.03125 3.550781 -0.820312 3.71875 -0.59375 C 3.894531 -0.363281 4.148438 -0.25 4.484375 -0.25 L 4.6875 -0.25 L 4.6875 0 L -0.125 0 L -0.125 -0.25 L 0.078125 -0.25 C 0.429688 -0.25 0.785156 -0.367188 1.140625 -0.609375 C 1.503906 -0.859375 1.800781 -1.226562 2.03125 -1.71875 C 5.707031 -9.5625 7.625 -13.671875 7.78125 -14.046875 C 8.0625 -14.753906 8.210938 -15.222656 8.234375 -15.453125 L 8.453125 -15.453125 L 14.671875 -1.71875 C 15.160156 -0.738281 15.804688 -0.25 16.609375 -0.25 Z M 5.3125 -5.859375 L 11.046875 -5.859375 L 8.234375 -12.765625 Z M 5.3125 -5.859375 "/></g></g></g><g fill="#ffa60b" fill-opacity="1"><g transform="translate(275.017525, 292.851509)"><g><path d="M 1.734375 -0.25 C 2.140625 -0.25 2.476562 -0.378906 2.75 -0.640625 C 3.03125 -0.898438 3.179688 -1.210938 3.203125 -1.578125 L 3.203125 -13.484375 C 3.179688 -13.859375 3.023438 -14.175781 2.734375 -14.4375 C 2.441406 -14.707031 2.09375 -14.84375 1.6875 -14.84375 L 1.390625 -14.84375 L 1.390625 -15.109375 L 6.59375 -15.109375 L 6.59375 -14.84375 L 6.296875 -14.84375 C 5.890625 -14.84375 5.539062 -14.707031 5.25 -14.4375 C 4.957031 -14.175781 4.8125 -13.859375 4.8125 -13.484375 L 4.8125 -0.78125 L 8.734375 -0.78125 C 9.503906 -0.78125 10.15625 -0.910156 10.6875 -1.171875 C 11.226562 -1.441406 11.632812 -1.757812 11.90625 -2.125 C 12.1875 -2.5 12.460938 -2.988281 12.734375 -3.59375 L 12.984375 -3.59375 L 11.609375 0 L 1.390625 0 L 1.390625 -0.25 Z M 1.734375 -0.25 "/></g></g></g><g fill="#ffa60b" fill-opacity="1"><g transform="translate(161.170264, 222.51523)"><g><path d="M -13.484375 23.046875 C -10.410156 24.066406 -7.363281 24.578125 -4.34375 24.578125 C -1.332031 24.578125 1.820312 23.953125 5.125 22.703125 C 8.425781 21.453125 11.441406 19.488281 14.171875 16.8125 C 16.898438 14.144531 19.144531 10.132812 20.90625 4.78125 C 22.675781 -0.570312 23.5625 -6.890625 23.5625 -14.171875 L 23.5625 -107.046875 C 23.445312 -110.003906 22.335938 -112.535156 20.234375 -114.640625 C 18.128906 -116.753906 15.597656 -117.8125 12.640625 -117.8125 L 10.421875 -117.8125 L 10.421875 -119.515625 L 47.8125 -119.515625 L 47.8125 -117.8125 L 45.59375 -117.8125 C 42.625 -117.8125 40.085938 -116.785156 37.984375 -114.734375 C 35.878906 -112.679688 34.769531 -110.117188 34.65625 -107.046875 L 34.65625 -13.65625 C 34.65625 -5.914062 33.457031 0.851562 31.0625 6.65625 C 28.675781 12.457031 25.664062 16.84375 22.03125 19.8125 C 15.195312 25.15625 7.625 27.828125 -0.6875 27.828125 C -5.570312 27.828125 -10.066406 26.859375 -14.171875 24.921875 Z M -13.484375 23.046875 "/></g></g></g></svg>