<svg width="20" height="18" viewBox="0 0 20 18" fill="none" xmlns="http://www.w3.org/2000/svg">
<path d="M2.65419 2.83296C2.24948 3.24473 1.92831 3.73414 1.70831 4.27296C1.2652 5.36217 1.2652 6.5814 1.70831 7.67061C1.92831 8.20943 2.24948 8.69885 2.65419 9.11061L10.1954 16.8236L17.746 9.12002C18.1507 8.70826 18.4718 8.21885 18.6918 7.68002C19.1352 6.59086 19.1352 5.37153 18.6918 4.28238C18.2527 3.20238 17.4062 2.33857 16.3354 1.87767C15.8086 1.6543 15.2423 1.5392 14.6701 1.5392C14.0979 1.5392 13.5316 1.6543 13.0048 1.87767C12.4765 2.1012 11.9977 2.42943 11.593 2.84238L10.206 4.25885L8.80595 2.83296C8.40479 2.42109 7.92568 2.09316 7.39654 1.86826C6.86976 1.64489 6.30343 1.52979 5.73125 1.52979C5.15907 1.52979 4.59273 1.64489 4.06595 1.86826C3.53654 2.09179 3.05772 2.4212 2.65419 2.83296Z" stroke="white" stroke-width="1.76471"/>
</svg>
