<svg width="28" height="28" viewBox="0 0 28 28" fill="none" xmlns="http://www.w3.org/2000/svg">
<path d="M14 0C6.272 0 0 6.272 0 14C0 21.728 6.272 28 14 28H22.624V25.032C25.9 22.456 28 18.48 28 14C28 6.272 21.728 0 14 0ZM8.96 15.26C8.26 15.26 7.7 14.7 7.7 14C7.7 13.3 8.26 12.74 8.96 12.74C9.66 12.74 10.22 13.3 10.22 14C10.22 14.7 9.66 15.26 8.96 15.26ZM14 15.26C13.3 15.26 12.74 14.7 12.74 14C12.74 13.3 13.3 12.74 14 12.74C14.7 12.74 15.26 13.3 15.26 14C15.26 14.7 14.7 15.26 14 15.26ZM19.04 15.26C18.34 15.26 17.78 14.7 17.78 14C17.78 13.3 18.34 12.74 19.04 12.74C19.74 12.74 20.3 13.3 20.3 14C20.3 14.7 19.74 15.26 19.04 15.26Z" fill="#161616"/>
</svg>
