<svg width="120" height="121" viewBox="0 0 120 121" fill="none" xmlns="http://www.w3.org/2000/svg">
<path d="M90.5762 46.6758H45.8919L38.2615 60.6344L70.1005 120.055H84.8672L72.5707 96.6068H90.5762C97.4381 96.6068 103.641 93.8482 108.088 89.3241C112.589 84.7999 115.389 78.6206 115.389 71.7241C115.444 57.8758 104.355 46.6758 90.5762 46.6758ZM102.873 71.8896C102.873 75.0344 101.61 77.9034 99.5241 79.9999C97.4381 82.0965 94.6384 83.3654 91.4545 83.3654H64.3914L51.052 58.3172H91.4545C97.7674 58.3172 102.818 63.4482 102.818 69.7379V71.8896H102.873Z" fill="white"/>
<path d="M31.4546 71.8895L23.8242 86.5654L42.3238 120H57.8041L31.4546 71.8895Z" fill="white"/>
<path d="M17.0722 97.6552L29.698 120H4.61108L17.0722 97.6552Z" fill="white"/>
<path d="M9.16743 91.8621L0 108.248V0H120V57.931L110.833 46.6759V9.21379H9.16743V91.8621Z" fill="#25AE22"/>
</svg>
